<svg width="316" height="168" viewBox="0 0 316 168" fill="none" xmlns="http://www.w3.org/2000/svg">
<path d="M11.6404 152.558L29.5175 117.576L49.6792 143.743L11.6404 152.558Z" fill="#3D44F3"/>
<path d="M304.529 150.399L266.394 142.015L286.263 115.621L304.529 150.399Z" fill="#17AECF"/>
<path d="M192.518 83.0556C192.518 128.926 153.98 166.111 106.44 166.111C58.9009 166.111 20.3625 128.926 20.3625 83.0556C20.3625 37.1853 58.9009 0 106.44 0C153.98 0 192.518 37.1853 192.518 83.0556ZM50.4898 83.0556C50.4898 112.871 75.5398 137.042 106.44 137.042C137.341 137.042 162.391 112.871 162.391 83.0556C162.391 53.2399 137.341 29.0695 106.44 29.0695C75.5398 29.0695 50.4898 53.2399 50.4898 83.0556Z" fill="url(#paint0_angular_2_38)"/>
<path d="M296.108 83.0556C296.108 128.926 257.569 166.111 210.03 166.111C162.49 166.111 123.952 128.926 123.952 83.0556C123.952 37.1853 162.49 0 210.03 0C257.569 0 296.108 37.1853 296.108 83.0556ZM154.079 83.0556C154.079 112.871 179.129 137.042 210.03 137.042C240.93 137.042 265.98 112.871 265.98 83.0556C265.98 53.2399 240.93 29.0695 210.03 29.0695C179.129 29.0695 154.079 53.2399 154.079 83.0556Z" fill="url(#paint1_angular_2_38)"/>
<ellipse cx="157.709" cy="49.3312" rx="17.123" ry="16.3312" fill="white"/>
<path d="M158.172 58.1967L188.631 117.689H127.712L158.172 58.1967Z" fill="white"/>
<ellipse cx="209.179" cy="53.1929" rx="13.8835" ry="13.0649" fill="white"/>
<path d="M209.641 66.2579L231.684 118.051H187.598L209.641 66.2579Z" fill="white"/>
<ellipse cx="105.515" cy="53.1929" rx="13.8835" ry="13.0649" fill="white"/>
<path d="M105.978 66.2579L128.021 118.051H83.9346L105.978 66.2579Z" fill="white"/>
<defs>
<radialGradient id="paint0_angular_2_38" cx="0" cy="0" r="1" gradientUnits="userSpaceOnUse" gradientTransform="translate(106.44 83.0556) rotate(90) scale(83.0556 86.0779)">
<stop offset="0.25" stop-color="#3684F9"/>
<stop offset="0.977739" stop-color="#A52FCF"/>
</radialGradient>
<radialGradient id="paint1_angular_2_38" cx="0" cy="0" r="1" gradientUnits="userSpaceOnUse" gradientTransform="translate(210.03 83.0556) rotate(90) scale(83.0556 86.0779)">
<stop offset="0.619792" stop-color="#8256AE"/>
<stop offset="0.760417" stop-color="#17AECF"/>
</radialGradient>
</defs>
</svg>
