<?xml version="1.0" standalone="no"?>
<!DOCTYPE svg PUBLIC "-//W3C//DTD SVG 20010904//EN"
 "http://www.w3.org/TR/2001/REC-SVG-20010904/DTD/svg10.dtd">
<svg version="1.0" xmlns="http://www.w3.org/2000/svg"
 width="300.000000pt" height="300.000000pt" viewBox="0 0 300.000000 300.000000"
 preserveAspectRatio="xMidYMid meet">
<metadata>
Created by potrace 1.10, written by Peter Selinger 2001-2011
</metadata>
<g transform="translate(0.000000,300.000000) scale(0.100000,-0.100000)"
fill="#000000" stroke="none">
<path d="M1350 2988 c-179 -11 -359 -65 -550 -164 -395 -205 -679 -586 -769
-1031 -20 -97 -29 -279 -11 -223 4 14 9 41 9 60 1 19 6 42 11 50 8 11 9 8 6
-15 -2 -16 -5 -91 -6 -165 -2 -129 -3 -133 -15 -90 l-13 45 -1 -73 c-2 -186
84 -455 217 -677 202 -336 574 -592 979 -674 147 -30 438 -31 584 -1 447 91
828 374 1033 770 69 133 100 215 133 350 24 99 46 313 31 304 -3 -2 -11 -37
-17 -77 -38 -251 -68 -359 -144 -512 -82 -166 -159 -278 -272 -390 -101 -100
-143 -136 -149 -126 -6 9 27 40 114 111 59 48 70 60 110 119 19 28 44 64 56
79 11 15 36 56 55 92 18 36 36 67 39 70 5 4 58 125 96 220 8 19 25 91 37 160
27 156 30 367 5 520 -9 58 -14 108 -11 112 2 5 0 8 -6 8 -6 0 -14 12 -17 28
-57 239 -206 495 -396 685 -60 59 -115 107 -122 107 -7 0 -19 7 -26 15 -29 34
-263 175 -292 175 -5 0 -16 7 -24 15 -26 26 -2 17 127 -48 158 -79 267 -156
384 -272 244 -241 388 -538 430 -890 7 -53 25 -129 29 -124 1 2 -1 54 -5 115
-13 186 -65 363 -164 551 -73 141 -152 248 -266 362 -196 196 -430 328 -702
397 -96 25 -320 47 -311 32 3 -5 -15 -8 -40 -8 -24 0 -46 3 -48 8 -1 4 -50 4
-108 0z m298 -57 c1 -4 14 -6 27 -3 14 2 33 1 42 -3 10 -4 35 -8 55 -10 21 -2
62 -13 93 -24 31 -12 65 -21 75 -21 11 0 20 -4 20 -10 0 -5 7 -10 16 -10 9 0
28 -7 42 -15 15 -8 43 -21 62 -29 19 -8 60 -30 90 -48 30 -18 70 -42 89 -53
18 -11 46 -31 62 -45 15 -14 44 -36 64 -50 21 -14 56 -45 79 -69 22 -24 62
-67 89 -94 26 -27 61 -73 77 -102 17 -29 37 -58 45 -65 8 -7 15 -18 15 -25 0
-8 4 -15 8 -17 14 -5 98 -178 116 -238 10 -30 24 -70 32 -88 8 -18 12 -37 9
-43 -4 -6 0 -18 8 -27 9 -9 18 -42 22 -72 3 -30 10 -73 14 -95 12 -57 13 -320
2 -363 -6 -20 -17 -82 -25 -137 -13 -92 -59 -228 -107 -317 -8 -14 -27 -53
-43 -85 -17 -32 -41 -72 -55 -90 -47 -57 -91 -122 -91 -132 0 -5 -10 -17 -22
-25 -37 -25 -83 -66 -176 -156 -48 -47 -101 -92 -117 -100 -17 -8 -55 -31 -85
-51 -37 -24 -71 -39 -104 -43 -29 -4 -59 -15 -71 -26 -12 -11 -31 -20 -44 -20
-12 0 -32 -5 -44 -12 -21 -11 -38 -15 -157 -34 -25 -4 -50 -10 -55 -15 -15
-11 -134 -23 -231 -23 -61 0 -86 4 -98 16 -22 23 -1 29 57 15 44 -10 69 -5 54
9 -3 4 -55 10 -114 14 -561 40 -1058 424 -1232 952 -47 146 -62 231 -68 399
-9 253 30 438 141 664 63 128 130 228 214 320 47 51 48 55 27 55 -8 0 -15 5
-15 10 0 13 72 90 85 90 6 1 21 14 35 30 13 17 27 30 32 30 4 0 18 10 32 23
53 48 80 67 93 67 7 0 23 11 35 25 12 14 30 25 39 25 10 0 21 5 25 11 3 6 15
9 25 6 12 -3 19 0 19 10 0 8 4 12 9 8 5 -3 16 2 24 10 9 8 23 15 31 15 8 0 33
9 55 21 22 11 64 24 93 29 29 5 73 13 98 19 112 26 470 35 478 12z m342 -41
c8 -5 12 -11 9 -14 -3 -3 -14 1 -25 9 -21 16 -8 20 16 5z m-1595 -450 c-38
-39 -53 -27 -18 14 16 20 32 30 37 25 6 -5 -1 -21 -19 -39z m-45 -54 c0 -14
-28 -42 -35 -34 -2 2 -2 14 2 26 6 24 33 31 33 8z m-64 -89 c-44 -59 -146
-252 -146 -278 0 -5 -5 -9 -11 -9 -5 0 -7 -4 -4 -10 3 -5 0 -24 -8 -42 -18
-40 -41 -120 -39 -130 1 -5 -3 -8 -9 -8 -6 0 -8 7 -5 16 4 9 11 36 17 60 6 25
15 47 20 49 4 3 6 12 2 20 -3 8 0 15 7 15 6 0 8 5 5 10 -8 13 87 213 139 294
20 31 41 54 46 51 6 -4 0 -20 -14 -38z m-220 -529 c-3 -13 -6 -33 -6 -45 0
-13 -5 -23 -11 -23 -7 0 -9 9 -4 28 5 15 8 35 9 45 0 9 4 17 9 17 5 0 7 -10 3
-22z m-16 -423 c0 -8 -2 -15 -4 -15 -2 0 -6 7 -10 15 -3 8 -1 15 4 15 6 0 10
-7 10 -15z m7 -97 c-3 -8 -6 -5 -6 6 -1 11 2 17 5 13 3 -3 4 -12 1 -19z m13
-28 c0 -5 -5 -10 -11 -10 -5 0 -7 5 -4 10 3 6 8 10 11 10 2 0 4 -4 4 -10z m10
-52 c0 -26 -9 -19 -15 11 -2 12 0 19 6 16 5 -4 9 -16 9 -27z m10 -43 c0 -8 -2
-15 -4 -15 -2 0 -6 7 -10 15 -3 8 -1 15 4 15 6 0 10 -7 10 -15z m10 -34 c0 -5
3 -17 7 -27 4 -11 3 -15 -4 -11 -14 9 -24 47 -12 47 5 0 9 -4 9 -9z m53 -146
c22 -51 58 -127 82 -167 39 -65 51 -98 26 -72 -16 16 -123 224 -116 224 4 0 2
6 -4 13 -15 18 -42 97 -33 97 4 0 24 -43 45 -95z m151 -283 c2 -4 1 -13 -3
-20 -5 -9 -12 -7 -26 8 -18 19 -18 20 3 20 11 0 23 -4 26 -8z m30 -67 c3 -9
22 -23 42 -31 34 -14 36 -17 21 -32 -15 -15 -19 -13 -51 24 -20 21 -35 42 -36
47 0 13 18 7 24 -8z m106 -96 c0 -5 -4 -9 -10 -9 -5 0 -10 7 -10 16 0 8 5 12
10 9 6 -3 10 -10 10 -16z m60 -92 c0 -6 -12 0 -27 14 -16 13 -30 25 -32 26 -1
1 0 6 4 12 7 12 55 -34 55 -52z m160 -84 c41 -28 97 -62 123 -78 33 -19 45
-31 38 -38 -21 -21 -311 179 -295 204 4 7 17 1 33 -14 14 -14 60 -47 101 -74z
m202 -145 c-12 -12 -35 -1 -27 12 3 5 13 6 21 3 10 -4 12 -9 6 -15z m115 -19
c90 -36 90 -36 77 -49 -15 -15 -158 41 -162 63 -4 22 -7 22 85 -14z m208 -60
c5 -6 5 -13 -1 -19 -12 -12 -105 1 -104 15 1 6 12 9 25 7 14 -2 25 2 25 8 0
12 38 5 55 -11z m97 -21 c54 -12 78 -24 78 -39 0 -9 -19 -7 -95 7 -55 10 -64
15 -58 30 6 17 8 17 75 2z"/>
<path d="M1218 2224 c-56 -30 -73 -104 -38 -161 24 -40 53 -56 101 -56 51 0
96 34 110 83 30 101 -79 185 -173 134z m130 -39 c32 -38 30 -89 -7 -126 -47
-47 -117 -34 -146 27 -20 43 -11 77 28 110 39 33 91 28 125 -11z"/>
<path d="M1632 2160 c-95 -58 -65 -202 46 -217 132 -18 180 161 60 223 -37 19
-67 17 -106 -6z m117 -27 c52 -43 40 -132 -20 -157 -65 -27 -129 15 -129 84 0
74 92 119 149 73z"/>
<path d="M1406 2008 c-18 -18 -35 -39 -37 -46 -4 -11 -10 -10 -34 2 -40 21
-70 20 -121 -5 -46 -22 -84 -81 -84 -131 0 -35 36 -170 59 -223 22 -50 62 -95
85 -95 8 0 28 11 44 25 l29 25 6 -33 c16 -95 86 -217 126 -217 43 0 95 72 121
168 l11 43 22 -33 c27 -40 69 -49 99 -21 49 44 116 249 105 320 -7 42 -41 89
-77 108 -42 22 -112 19 -143 -5 l-25 -20 5 39 c15 108 -116 175 -191 99z m141
-19 c30 -29 38 -71 19 -108 -31 -60 -99 -70 -147 -22 -46 47 -38 114 19 146
33 19 78 12 109 -16z m-203 -60 c14 -11 26 -28 26 -38 0 -9 7 -27 16 -40 21
-30 12 -88 -21 -137 -16 -24 -25 -51 -25 -76 0 -46 -32 -98 -60 -98 -46 0
-108 140 -117 265 -5 62 -2 73 17 98 40 51 117 63 164 26z m433 -83 c27 -30
33 -44 33 -82 0 -84 -56 -252 -95 -284 -39 -32 -100 49 -89 118 7 47 -9 102
-36 127 -39 35 -19 103 40 143 50 34 104 26 147 -22z m-224 -53 c-5 -30 -8
-32 -32 -26 -33 9 -49 9 -82 0 -24 -6 -25 -4 -21 23 2 17 5 30 7 30 1 0 16 -5
32 -11 23 -8 39 -7 64 4 19 8 35 14 35 13 1 -1 -1 -16 -3 -33z m12 -73 c37
-35 45 -77 30 -157 -28 -142 -85 -244 -125 -223 -29 16 -57 69 -85 165 -35
120 -31 167 20 213 34 31 41 34 86 30 33 -4 58 -13 74 -28z"/>
<path d="M1050 1118 c0 -2 -13 -73 -30 -158 -23 -119 -27 -156 -17 -162 29
-18 47 -1 47 43 0 17 6 20 33 17 28 -3 32 -7 35 -35 3 -30 6 -33 38 -33 29 0
34 3 30 18 -3 9 -22 83 -42 165 -36 147 -37 147 -65 147 -16 0 -29 -1 -29 -2z
m44 -60 c8 -33 8 -34 -14 -34 -13 0 -19 5 -15 14 3 7 5 20 5 28 0 22 17 16 24
-8z m-4 -67 c0 -10 3 -32 6 -48 5 -25 2 -31 -16 -36 -19 -5 -21 -2 -16 16 3
12 6 37 6 55 0 17 5 32 10 32 6 0 10 -8 10 -19z m40 -97 c0 -8 -5 -12 -10 -9
-6 4 -8 11 -5 16 9 14 15 11 15 -7z"/>
<path d="M1736 1108 c-3 -7 -16 -78 -31 -157 -21 -116 -24 -146 -13 -152 25
-16 37 -9 44 26 5 30 10 35 34 35 28 0 40 -15 40 -51 0 -17 6 -20 33 -17 17 2
31 6 30 11 0 4 -18 77 -39 162 -38 154 -38 155 -66 155 -16 0 -30 -6 -32 -12z
m44 -53 c0 -12 -7 -26 -16 -29 -13 -5 -15 -2 -10 16 3 13 6 29 6 36 0 7 5 10
10 7 6 -3 10 -17 10 -30z m0 -72 c0 -16 3 -38 6 -49 4 -16 0 -23 -16 -27 -20
-5 -22 -3 -16 25 3 17 6 41 6 54 0 13 5 24 10 24 6 0 10 -12 10 -27z m40 -89
c0 -8 -5 -12 -10 -9 -6 4 -8 11 -5 16 9 14 15 11 15 -7z m-80 -8 c0 -3 -4 -8
-10 -11 -5 -3 -10 -1 -10 4 0 6 5 11 10 11 6 0 10 -2 10 -4z"/>
<path d="M823 1102 c-21 -3 -23 -9 -23 -56 0 -29 -3 -101 -7 -159 l-6 -107 31
0 32 0 0 80 c0 80 0 80 26 80 l27 0 -5 -70 -5 -70 31 0 31 0 0 155 0 156 -25
-3 c-23 -3 -25 -7 -28 -65 -3 -59 -4 -63 -27 -63 -23 0 -24 4 -27 63 -3 58 -4
62 -25 59z"/>
<path d="M2318 1102 c-58 -2 -78 -6 -78 -17 0 -7 -3 -21 -7 -31 -5 -14 -1 -16
25 -12 l32 5 -5 -86 c-3 -47 -8 -105 -10 -129 -5 -42 -4 -42 23 -36 15 3 33 7
40 10 10 3 11 30 6 124 l-7 120 25 0 c19 0 27 7 32 26 4 15 6 27 4 28 -2 0
-38 0 -80 -2z m7 -42 c-3 -5 -11 -10 -16 -10 -6 0 -7 5 -4 10 3 6 11 10 16 10
6 0 7 -4 4 -10z"/>
<path d="M1263 1090 c-13 -5 -23 -18 -23 -29 0 -19 5 -20 45 -14 36 4 46 2 51
-11 8 -21 -13 -46 -37 -46 -26 0 -25 -37 0 -45 36 -11 38 -70 3 -78 -10 -2
-28 0 -40 5 -51 18 -59 -26 -9 -47 19 -8 45 -11 58 -8 59 14 93 84 63 130 -14
23 -14 26 2 38 25 18 24 83 -1 101 -21 16 -78 17 -112 4z"/>
<path d="M1568 1093 c-23 -4 -28 -11 -33 -41 -4 -20 -8 -44 -9 -52 -3 -14 -10
-1 -35 64 -7 18 -15 22 -34 19 -24 -5 -26 -9 -31 -92 -4 -47 -8 -107 -10 -133
-3 -46 6 -57 48 -58 5 0 6 45 4 101 -3 55 -2 96 2 92 3 -4 14 -34 24 -65 15
-50 20 -58 42 -58 23 0 24 2 24 70 0 48 4 70 12 70 9 0 9 3 0 12 -16 16 -16
41 0 36 8 -3 12 -34 13 -94 1 -49 5 -106 9 -127 7 -32 11 -37 30 -31 11 4 22
8 24 9 6 5 -40 285 -47 284 -3 -1 -18 -4 -33 -6z m-89 -70 c10 -19 9 -22 -4
-17 -8 4 -15 15 -15 27 0 23 2 22 19 -10z m51 -75 c0 -23 -16 -16 -23 11 -3
14 -1 18 9 14 8 -3 14 -14 14 -25z"/>
<path d="M1920 945 l0 -155 65 0 c63 0 65 1 65 25 0 23 -4 25 -45 25 l-45 0 5
73 c3 39 8 98 10 130 l5 57 -30 0 -30 0 0 -155z"/>
<path d="M2175 1095 c-5 -2 -31 -6 -57 -10 l-48 -6 0 -53 c0 -29 3 -94 6 -144
l7 -92 63 0 c60 0 64 2 64 23 0 20 -4 22 -45 19 l-46 -4 3 36 c2 34 4 36 36
36 30 0 33 2 30 28 -3 24 -7 27 -35 24 -33 -3 -33 -3 -33 42 l0 46 40 0 c38 0
40 2 40 30 0 29 -3 32 -25 25z"/>
<path d="M632 1055 c-43 -36 -55 -73 -50 -159 4 -95 26 -130 85 -134 28 -2 47
3 66 18 31 25 32 28 11 55 -14 19 -16 19 -25 3 -15 -27 -56 -22 -75 7 -26 40
-14 122 21 153 19 16 35 22 51 18 17 -5 24 -1 30 16 15 48 -65 65 -114 23z
m18 -29 c0 -2 -8 -10 -17 -17 -16 -13 -17 -12 -4 4 13 16 21 21 21 13z"/>
<path d="M400 246 c0 -2 8 -10 18 -17 15 -13 16 -12 3 4 -13 16 -21 21 -21 13z"/>
</g>
</svg>
