<svg width="24" height="24" viewBox="0 0 24 24" fill="none" xmlns="http://www.w3.org/2000/svg">
<g clip-path="url(#clip0_94_1509)">
<path d="M12.2043 2C6.99707 2 2.77576 6.47715 2.77576 12C2.77576 17.5228 6.99707 22 12.2043 22C17.4116 22 21.6329 17.5228 21.6329 12C21.6329 9.34784 20.6395 6.8043 18.8713 4.92893C17.1031 3.05357 14.7049 2 12.2043 2ZM12.2043 5C13.7665 5 15.0329 6.34315 15.0329 8C15.0329 9.65685 13.7665 11 12.2043 11C10.6422 11 9.37576 9.65685 9.37576 8C9.37576 6.34315 10.6422 5 12.2043 5ZM17.5032 16.16C16.2581 17.9384 14.2928 18.9868 12.2043 18.9868C10.1158 18.9868 8.15057 17.9384 6.90547 16.16C6.71616 15.8633 6.69098 15.4818 6.83947 15.16L7.03747 14.72C7.50407 13.671 8.49901 13.0012 9.59261 13H14.816C15.8943 13.0015 16.8779 13.6531 17.3523 14.68L17.5692 15.15C17.7214 15.4745 17.6961 15.8609 17.5032 16.16Z" fill="white"/>
</g>
<defs>
<clipPath id="clip0_94_1509">
<rect width="22.6286" height="24" fill="white" transform="translate(0.890015)"/>
</clipPath>
</defs>
</svg>
