<svg width="36" height="25" viewBox="0 0 36 25" fill="none" xmlns="http://www.w3.org/2000/svg">
<path d="M7.00003 24H27C31.4183 24 35 20.4183 35 16V16C35 11.5817 31.4183 8 27 8H10.9375" stroke="white" stroke-width="2"/>
<path d="M0.287131 7.46284C-0.100179 7.85655 -0.0949897 8.4897 0.298722 8.87701L6.71463 15.1886C7.10834 15.5759 7.74149 15.5707 8.1288 15.177C8.51611 14.7833 8.51092 14.1501 8.11721 13.7628L2.41418 8.15254L8.02448 2.44951C8.41179 2.0558 8.4066 1.42265 8.01288 1.03534C7.61917 0.648032 6.98603 0.653221 6.59872 1.04693L0.287131 7.46284ZM21.0161 7.00003L0.991814 7.16416L1.00821 9.1641L21.0325 8.99997L21.0161 7.00003Z" fill="white"/>
</svg>
