<svg width="25" height="24" viewBox="0 0 25 24" fill="none" xmlns="http://www.w3.org/2000/svg">
<path fill-rule="evenodd" clip-rule="evenodd" d="M14.9703 3.3437C13.0166 2.88543 10.9834 2.88543 9.02975 3.3437C6.20842 4.00549 4.0055 6.20841 3.3437 9.02975C2.88543 10.9834 2.88543 13.0166 3.3437 14.9703C4.0055 17.7916 6.20842 19.9945 9.02975 20.6563C10.9834 21.1146 13.0166 21.1146 14.9703 20.6563C17.7916 19.9945 19.9945 17.7916 20.6563 14.9703C21.1146 13.0166 21.1146 10.9834 20.6563 9.02975C19.9945 6.20842 17.7916 4.00549 14.9703 3.3437ZM8.55374 12C8.55374 10.0967 10.0967 8.55377 12 8.55377C13.9033 8.55377 15.4462 10.0967 15.4462 12C15.4462 13.9033 13.9033 15.4462 12 15.4462C10.0967 15.4462 8.55374 13.9033 8.55374 12ZM12 9.70252C10.7311 9.70252 9.70249 10.7311 9.70249 12C9.70249 13.2689 10.7311 14.2975 12 14.2975C13.2688 14.2975 14.2975 13.2689 14.2975 12C14.2975 10.7311 13.2688 9.70252 12 9.70252ZM15.8291 8.6495C16.3578 8.6495 16.7864 8.22091 16.7864 7.69222C16.7864 7.16352 16.3578 6.73493 15.8291 6.73493C15.3004 6.73493 14.8718 7.16352 14.8718 7.69222C14.8718 8.22091 15.3004 8.6495 15.8291 8.6495Z" fill="white"/>
</svg>
