<svg width="44" height="44" viewBox="0 0 44 44" fill="none" xmlns="http://www.w3.org/2000/svg">
<path fill-rule="evenodd" clip-rule="evenodd" d="M28.279 5.45947C26.6244 5.45947 25.0375 6.11442 23.8675 7.28022L16.5098 14.6117C13.1305 17.979 10.7331 22.198 9.57403 26.8178L9.21851 28.2348C8.84977 29.7045 10.1858 31.0357 11.6607 30.6683L13.0828 30.314C17.7192 29.1591 21.9533 26.7703 25.3326 23.4031L32.6904 16.0716C33.8604 14.9058 34.5177 13.3246 34.5177 11.6759C34.5177 8.24267 31.7245 5.45947 28.279 5.45947ZM26.1645 13.7829C27.2907 14.9051 28.5964 15.3832 29.5649 15.2152L30.698 14.0862C31.3395 13.447 31.6999 12.58 31.6999 11.6759C31.6999 9.79331 30.1683 8.26717 28.279 8.26717C27.3717 8.26717 26.5016 8.62631 25.86 9.26557L24.727 10.3945C24.5584 11.3596 25.0382 12.6606 26.1645 13.7829Z" fill="white"/>
<path fill-rule="evenodd" clip-rule="evenodd" d="M7.2793 36.8121C7.2793 36.0368 7.91007 35.4083 8.68818 35.4083H34.9873C35.7654 35.4083 36.3962 36.0368 36.3962 36.8121C36.3962 37.5874 35.7654 38.216 34.9873 38.216H8.68818C7.91007 38.216 7.2793 37.5874 7.2793 36.8121Z" fill="white"/>
</svg>
