<svg width="44" height="44" viewBox="0 0 44 44" fill="none" xmlns="http://www.w3.org/2000/svg">
<path fill-rule="evenodd" clip-rule="evenodd" d="M23.1999 8.17511C22.3105 7.95888 21.3794 7.9633 20.4922 8.18798L20.3791 8.21663C17.951 8.83151 16.2042 10.8557 15.9683 13.2458L16.0298 13.2332C19.8593 12.4447 23.8162 12.4447 27.6457 13.2332L28.1028 13.3273C31.8779 14.1045 34.8766 16.8905 35.8472 20.5223C36.752 23.908 36.5342 27.4851 35.2248 30.7433L35.071 31.126C33.6665 34.621 30.4684 37.1349 26.6598 37.7379L25.4203 37.9342C23.0475 38.3099 20.6279 38.3099 18.2551 37.9342L17.0156 37.7379C13.207 37.1349 10.009 34.621 8.60444 31.1259L8.45066 30.7433C7.14129 27.4851 6.92348 23.908 7.82829 20.5224C8.59536 17.6521 10.6292 15.3101 13.3119 14.0704V13.8002C13.3119 10.0098 15.9445 6.69769 19.7165 5.74248L19.8297 5.71383C21.1429 5.38126 22.521 5.37471 23.8376 5.69478C25.2626 6.04121 26.5639 6.75774 27.6026 7.76775L28.0255 8.17903C28.5389 8.67825 28.5389 9.48764 28.0255 9.98686C27.5121 10.4861 26.6798 10.4861 26.1664 9.98686L25.7435 9.57558C25.0418 8.89323 24.1626 8.40916 23.1999 8.17511ZM22.8894 24.423C22.8894 23.8582 22.4186 23.4003 21.8378 23.4003C21.2569 23.4003 20.7861 23.8582 20.7861 24.423V27.8319C20.7861 28.3967 21.2569 28.8545 21.8378 28.8545C22.4186 28.8545 22.8894 28.3967 22.8894 27.8319V24.423Z" fill="white"/>
</svg>
