<svg width="23" height="24" viewBox="0 0 23 24" fill="none" xmlns="http://www.w3.org/2000/svg">
<g clip-path="url(#clip0_94_1501)">
<path d="M21.0572 6C21.0572 4.89543 20.213 4 19.1715 4H4.08579C3.04434 4 2.20007 4.89543 2.20007 6V18C2.20007 19.1046 3.04434 20 4.08579 20H19.1715C20.213 20 21.0572 19.1046 21.0572 18V6ZM16.4372 6L11.6286 10.08L6.82007 6H16.4372ZM18.2286 18H5.02864V8.32L10.8838 13.32C11.0497 13.4612 11.2557 13.5387 11.4684 13.54H11.7984C12.011 13.5387 12.217 13.4612 12.3829 13.32L18.2286 8.32V18Z" fill="white"/>
</g>
<defs>
<clipPath id="clip0_94_1501">
<rect width="22.6286" height="24" fill="white" transform="translate(0.314331)"/>
</clipPath>
</defs>
</svg>
