<svg width="146" height="146" viewBox="0 0 146 146" fill="none" xmlns="http://www.w3.org/2000/svg">
<path d="M21.301 86.6267V111.568C21.2707 112.014 21.2707 112.461 21.301 112.907L17.4793 109.135C13.7857 105.134 11.8796 99.7952 12.2017 94.3525V69.4108C12.2017 57.8525 20.5124 49.9442 22.6962 37.5342L25.426 21.7783C25.7329 20.1356 27.3041 19.049 28.9444 19.345C32.5646 19.8575 35.5273 22.4932 36.4664 26.0367C36.6494 26.8579 36.6494 27.7096 36.4664 28.5308L30.4002 64.1183C24.6578 70.21 21.4097 78.2446 21.301 86.6267ZM91.062 16.4858C93.4407 14.1004 93.4407 10.2329 91.062 7.8475C88.6833 5.46209 84.8267 5.46209 82.448 7.8475L58.1833 32.1808C61.3971 35.1787 63.4223 39.2404 63.8855 43.6175L91.062 16.4858ZM123.455 79.6308L111.323 91.7975C110.144 92.9568 108.256 92.9568 107.077 91.7975C106.502 91.2264 106.179 90.4489 106.179 89.6379C106.179 88.8269 106.502 88.0494 107.077 87.4783L132.069 62.415C134.421 60.0423 134.421 56.2102 132.069 53.8375C130.93 52.6858 129.38 52.0381 127.762 52.0381C126.145 52.0381 124.594 52.6858 123.455 53.8375L98.1594 79.0833C96.98 80.2426 95.0925 80.2426 93.9131 79.0833C93.3389 78.5122 93.0159 77.7348 93.0159 76.9237C93.0159 76.1127 93.3389 75.3353 93.9131 74.7642L126.124 42.5833C128.476 40.2106 128.476 36.3786 126.124 34.0058C124.985 32.8542 123.435 32.2064 121.817 32.2064C120.2 32.2064 118.65 32.8542 117.51 34.0058L85.2991 66.3083C84.1098 67.501 82.1815 67.501 80.9921 66.3083C79.8028 65.1156 79.8028 63.1819 80.9921 61.9892L109.26 33.7017C110.799 32.1586 111.4 29.9095 110.837 27.8016C110.274 25.6937 108.632 24.0472 106.53 23.4824C104.428 22.9176 102.185 23.5202 100.647 25.0633L54.6649 70.9317V45.3208C54.6096 40.9451 51.4448 37.2339 47.1429 36.5C45.5026 36.204 43.9315 37.2906 43.6245 38.9333L40.8947 54.75C38.7109 66.9167 30.4002 75.0683 30.4002 86.6267V111.568C30.0944 117.02 32.0228 122.36 35.7385 126.351L43.9885 134.563C47.3981 137.987 52.0238 139.912 56.8488 139.917H57.1521C63.3249 139.906 69.3957 138.337 74.8046 135.354L93.5491 124.891C96.0172 123.506 98.283 121.787 100.283 119.781L131.766 88.2692C134.145 85.8838 134.145 82.0162 131.766 79.6308C129.387 77.2454 125.531 77.2454 123.152 79.6308H123.455Z" fill="#54BF21"/>
</svg>
