<svg width="23" height="24" viewBox="0 0 23 24" fill="none" xmlns="http://www.w3.org/2000/svg">
<path d="M19.0477 3H17.7048C17.4549 3.0011 17.2155 3.10526 17.0381 3.29L10.2 10.47C9.53786 10.1592 8.82057 9.99907 8.09527 10C5.20235 10 2.85718 12.4624 2.85718 15.5C2.85718 18.5376 5.20235 21 8.09527 21C10.9882 21 13.3334 18.5376 13.3334 15.5C13.3318 14.743 13.1827 13.9943 12.8953 13.3L13.7334 12.42C13.9093 12.2337 14.0085 11.9823 14.0096 11.72V11C14.0097 10.8012 14.0851 10.6105 14.2191 10.47L14.4667 10.21C14.6005 10.0693 14.7821 9.99017 14.9715 9.99H16.6667C16.9297 9.99 17.1429 9.76614 17.1429 9.49V7.73C17.1431 7.53115 17.2184 7.34052 17.3524 7.2H17.4C17.4808 7.08369 17.6062 7.01056 17.7429 7H19.5238C19.7868 7 20 6.77614 20 6.5V4C20 3.44772 19.5736 3 19.0477 3ZM7.08575 18.56C6.03378 18.56 5.18099 17.6646 5.18099 16.56C5.18099 15.4554 6.03378 14.56 7.08575 14.56C8.13772 14.56 8.99051 15.4554 8.99051 16.56C8.99051 17.0904 8.78983 17.5991 8.43262 17.9742C8.07541 18.3493 7.59092 18.56 7.08575 18.56Z" fill="white"/>
</svg>
