<svg width="46" height="46" viewBox="0 0 46 46" fill="none" xmlns="http://www.w3.org/2000/svg">
<path d="M6.04418 15.9824C6.73636 12.9061 9.12261 10.4843 12.2042 9.73078C16.4049 8.70353 20.8418 8.71527 25.0426 9.74252C28.0855 10.4866 30.5033 12.8476 31.2689 15.8659L31.3153 16.0487C32.4514 20.5275 32.4514 25.2163 31.3153 29.6951L31.2689 29.8778C30.5033 32.8962 28.0855 35.2571 25.0426 36.0012C20.8418 37.0285 16.4049 37.0402 12.2042 36.013C9.12261 35.2594 6.73636 32.8377 6.04418 29.7613L5.92989 29.2534C4.98431 25.0509 4.98431 20.6929 5.92989 16.4904L6.04418 15.9824Z" stroke="black" stroke-width="2.78114"/>
<path d="M31.4808 29.0059L31.846 29.1268C31.9409 29.1582 32.0335 29.1963 32.123 29.2408L35.2451 30.7913C37.6357 31.9785 40.4484 30.2519 40.4485 27.5971L40.4485 18.8117C40.4485 16.0067 37.3422 14.2967 34.9474 15.7833L32.1929 17.4933C32.0571 17.5776 31.9315 17.6769 31.8183 17.7893L31.7165 17.8904C32.388 21.5698 32.3094 25.3501 31.4808 29.0059Z" stroke="black" stroke-width="2.78114"/>
</svg>
